<?xml version="1.0" encoding="UTF-8" standalone="no"?>
<!-- Created with Inkscape (http://www.inkscape.org/) -->

<svg
   width="19.644749mm"
   height="14.918456mm"
   viewBox="0 0 19.644748 14.918456"
   version="1.1"
   id="svg1"
   xml:space="preserve"
   inkscape:version="1.3.2 (091e20e, 2023-11-25, custom)"
   sodipodi:docname="lafrog_petite.svg"
   xmlns:inkscape="http://www.inkscape.org/namespaces/inkscape"
   xmlns:sodipodi="http://sodipodi.sourceforge.net/DTD/sodipodi-0.dtd"
   xmlns="http://www.w3.org/2000/svg"
   xmlns:svg="http://www.w3.org/2000/svg"><sodipodi:namedview
     id="namedview1"
     pagecolor="#ffffff"
     bordercolor="#000000"
     borderopacity="0.25"
     inkscape:showpageshadow="2"
     inkscape:pageopacity="0.0"
     inkscape:pagecheckerboard="0"
     inkscape:deskcolor="#d1d1d1"
     inkscape:document-units="mm"
     inkscape:zoom="1.0449705"
     inkscape:cx="240.19817"
     inkscape:cy="166.99036"
     inkscape:window-width="1350"
     inkscape:window-height="1237"
     inkscape:window-x="1488"
     inkscape:window-y="116"
     inkscape:window-maximized="0"
     inkscape:current-layer="layer1" /><defs
     id="defs1" /><g
     inkscape:label="Layer 1"
     inkscape:groupmode="layer"
     id="layer1"
     transform="translate(-41.257172,-104.22777)"><path
       style="display:inline;fill:#000000;stroke-width:0.220018"
       d="m 60.312243,119.11591 c -0.08538,-0.0219 -0.190161,-0.0678 -0.232852,-0.10217 -0.0427,-0.0343 -0.426896,-0.20097 -0.853793,-0.37039 l -0.776175,-0.30803 -0.659746,-0.0936 c -0.362861,-0.0515 -0.904244,-0.12257 -1.203069,-0.15812 -0.499819,-0.0595 -1.309569,-0.31499 -1.46034,-0.46095 -0.203975,-0.19745 0.26983,-0.99651 1.153322,-1.94504 l 0.32533,-0.34928 0.07532,-0.31299 0.07532,-0.313 -0.08174,-0.12957 c -0.09826,-0.15579 -0.03842,-0.23572 0.128512,-0.17167 0.187405,0.0719 0.215627,0.23509 0.117035,0.67672 l -0.09058,0.40576 -0.457934,0.49537 c -0.614629,0.66491 -0.909717,1.08357 -0.909717,1.29069 v 0.17162 l 0.433802,0.16602 c 0.238593,0.0913 0.515285,0.166 0.614874,0.166 0.09959,0 0.611664,0.0718 1.137949,0.1595 l 0.95688,0.1595 0.865456,0.34502 c 1.00073,0.39894 1.223549,0.43538 0.717134,0.11728 -0.196814,-0.12358 -0.382087,-0.28795 -0.411714,-0.36515 l -0.05387,-0.14039 0.13439,-0.0983 c 0.169202,-0.12371 0.133187,-0.15833 -0.246974,-0.23732 l -0.305863,-0.0635 v -0.15175 -0.15176 l 0.252258,-0.11099 c 0.40802,-0.17959 0.0423,-0.28826 -1.523065,-0.45262 l -0.3394,-0.0357 -0.06691,0.10557 c -0.112236,0.17714 -0.07918,0.22202 0.16357,0.22202 h 0.232853 v 0.15524 0.15523 H 57.75086 57.479199 v 0.19404 0.19404 h -0.105155 c -0.130636,0 -0.527827,-0.46876 -0.490568,-0.57896 0.01503,-0.0445 0.111064,-0.0808 0.213417,-0.0808 h 0.186103 l 0.09231,-0.38809 c 0.05077,-0.21345 0.12905,-1.02259 0.173952,-1.79811 l 0.08165,-1.41002 -0.0836,-0.23981 -0.0836,-0.23982 -0.198302,-0.0498 c -0.260375,-0.0654 -0.43996,0.0549 -0.470944,0.31545 l -0.02501,0.21028 -0.161108,-0.0241 c -0.08861,-0.0132 -0.199422,-0.0852 -0.246252,-0.1599 l -0.08515,-0.13584 0.08374,-0.13583 c 0.04605,-0.0747 0.205147,-0.20241 0.353538,-0.28377 l 0.269801,-0.14795 0.198977,0.0499 c 0.109438,0.0275 0.281981,0.11754 0.383433,0.20015 l 0.18445,0.1502 -0.02164,1.69989 -0.02164,1.6999 0.631466,0.1357 c 0.347307,0.0746 0.937161,0.16732 1.310786,0.20598 1.012472,0.10469 1.256667,0.30624 0.598384,0.49375 -0.358301,0.10205 -0.354979,0.18956 0.01507,0.39715 0.154267,0.0866 0.292553,0.21999 0.3073,0.29656 l 0.02681,0.13923 -0.161986,0.0423 c -0.212887,0.0557 -0.212509,0.0566 0.152253,0.38618 l 0.314237,0.28388 -0.02317,0.16221 -0.02317,0.1622 -0.194045,0.0126 c -0.106718,0.008 -0.263899,-0.006 -0.349279,-0.0277 z m -6.170729,-0.37273 c -0.04261,-0.11213 -0.07748,-0.23633 -0.07748,-0.27613 0,-0.0397 -0.117199,-0.2034 -0.260452,-0.36361 -0.143246,-0.16021 -0.27939,-0.39403 -0.302541,-0.51958 l -0.04209,-0.22827 0.109917,-0.16777 c 0.06046,-0.0922 0.110963,-0.35627 0.112235,-0.5867 0.0053,-0.96017 -0.05592,-2.21341 -0.114326,-2.33997 l -0.06269,-0.13583 h 0.121734 0.121735 l 0.0842,0.31273 0.08421,0.31272 -0.05197,0.45935 -0.05197,0.45935 0.09242,0.48979 0.09242,0.48977 -0.08452,0.22232 -0.08452,0.22231 0.08879,0.10696 c 0.04883,0.0588 0.193907,0.10696 0.322382,0.10696 0.241351,0 0.756426,0.26857 0.756426,0.39441 0,0.10293 -0.364024,0.0877 -0.540843,-0.0228 -0.08286,-0.0517 -0.174684,-0.07 -0.204052,-0.0407 -0.07219,0.0722 0.100267,0.26948 0.338724,0.38754 0.262345,0.12991 0.194694,0.25589 -0.125501,0.23375 l -0.260014,-0.018 0.0469,0.1222 c 0.111731,0.29117 0.130614,0.48254 0.05238,0.53089 l -0.08405,0.0519 z m -2.197235,-0.43846 c -0.07212,-0.0403 -0.131142,-0.12523 -0.131142,-0.1887 0,-0.42407 -0.323045,-0.57047 -0.775952,-0.35165 -0.320399,0.1548 -0.388308,0.14223 -0.388308,-0.0719 v -0.13263 l 0.446299,-0.22312 0.4463,-0.22313 0.02465,-0.21446 c 0.02197,-0.19118 -0.24626,-1.26363 -0.45026,-1.80019 l -0.07692,-0.20232 -0.175634,0.1096 c -0.0966,0.0602 -0.270232,0.13156 -0.385854,0.15834 l -0.210222,0.0486 0.107145,-0.21411 c 0.390067,-0.77953 0.496142,-1.0456 0.457249,-1.14695 l -0.04413,-0.11502 h 0.151509 c 0.506217,0 0.486861,-0.48559 -0.02449,-0.61434 -0.202682,-0.051 -0.454862,-0.16072 -0.560399,-0.24374 -0.105533,-0.083 -0.228076,-0.15094 -0.272309,-0.15094 -0.0838,0 -0.794943,-0.32516 -1.528609,-0.69895 -0.234794,-0.11955 -0.57534,-0.2613 -0.756771,-0.31487 -0.294819,-0.0871 -0.451892,-0.22805 -0.254028,-0.22805 0.123409,0 1.013337,0.35543 1.515311,0.6052 1.10885,0.55174 1.813371,0.87732 2.037675,0.94163 l 0.240723,0.069 0.127795,-0.14121 c 0.07028,-0.0777 0.220785,-0.16456 0.334437,-0.19308 l 0.206638,-0.0519 -0.154137,-0.0825 c -0.08478,-0.0453 -0.223994,-0.16212 -0.309374,-0.2594 -0.155997,-0.17775 -0.699242,-0.42679 -1.707583,-0.78279 -0.755163,-0.26664 -1.511389,-0.57986 -1.772245,-0.73406 l -0.219896,-0.13001 0.08181,-0.0506 c 0.045,-0.0279 0.405911,0.10292 0.802027,0.29054 0.396116,0.18762 0.824995,0.36641 0.953063,0.39732 0.128069,0.0309 0.648132,0.23426 1.155694,0.45189 l 0.922841,0.39571 0.03533,0.13506 0.03531,0.13504 0.375922,0.12296 c 0.206758,0.0677 0.425771,0.12295 0.486701,0.12295 0.06092,0 0.199584,0.0698 0.308127,0.15522 0.258282,0.20317 0.537398,0.19584 1.274119,-0.0335 0.33348,-0.10381 0.877019,-0.26607 1.207862,-0.36059 l 0.601535,-0.17184 v -0.29411 -0.29411 l -0.592411,0.27372 c -0.325827,0.15053 -0.858477,0.32844 -1.183666,0.39535 l -0.591252,0.12157 -0.737367,-0.0818 c -0.798145,-0.0884 -1.357303,-0.27052 -1.432476,-0.46642 -0.08987,-0.2342 0.07775,-0.24636 0.501967,-0.0364 l 0.425632,0.21065 0.86448,0.0276 0.86448,0.0276 0.450561,-0.13098 c 1.410763,-0.41013 2.130628,-1.03296 2.589832,-2.24075 l 0.07217,-0.18985 -0.75181,-0.5077 c -0.413495,-0.27922 -1.11855,-0.79207 -1.566792,-1.13966 -0.448241,-0.34758 -0.972157,-0.72095 -1.16426,-0.8297 -0.192104,-0.10873 -0.442105,-0.2618 -0.555563,-0.3401 l -0.206284,-0.14234 -0.04354,0.1135 c -0.07238,0.18861 -0.235549,0.12498 -0.358879,-0.14006 l -0.11643,-0.25017 -0.310469,-0.17378 -0.310469,-0.17377 -0.341796,-0.001 -0.341798,-10e-4 -0.29296,0.31734 c -0.730521,0.79129 -0.728381,1.71397 0.0049,2.08804 l 0.305778,0.156 H 51.6587 c 0.49541,0 0.812443,-0.15998 0.918194,-0.46336 0.103064,-0.29563 0.245306,-0.30542 0.245306,-0.0169 v 0.21834 l -0.213448,0.198 c -0.268153,0.24875 -0.638979,0.37473 -1.098226,0.37309 l -0.357101,-0.001 -0.31047,-0.17368 -0.310469,-0.17367 -0.179609,-0.34897 -0.179608,-0.34896 0.02683,-0.46586 0.02683,-0.46585 0.308019,-0.44299 c 0.16941,-0.24363 0.412799,-0.4912 0.54087,-0.55013 l 0.232851,-0.10708 0.469919,0.0165 c 0.258453,0.009 0.579056,0.0729 0.712449,0.14193 l 0.242533,0.12548 0.03046,0.1755 0.03046,0.17549 0.08826,-0.21005 0.08826,-0.21003 0.41071,-0.23556 c 0.538966,-0.30911 1.205769,-0.51771 1.924244,-0.60193 l 0.582132,-0.0683 -0.3681,-0.18666 -0.368102,-0.18667 0.09644,-0.0648 0.09644,-0.0648 -0.225023,0.0525 -0.225026,0.0525 0.06196,-0.10028 0.06196,-0.10028 -0.212124,0.0532 -0.212124,0.0533 0.05745,-0.093 0.05745,-0.093 -0.183706,0.0481 c -0.101035,0.0265 -0.333094,0.0101 -0.515681,-0.0355 l -0.331979,-0.0835 -0.524885,0.094 c -0.288685,0.0517 -0.891625,0.19586 -1.339867,0.32041 -0.448241,0.12459 -1.345546,0.32844 -1.994015,0.45312 -1.283789,0.24682 -1.498767,0.32436 -1.498767,0.54059 v 0.1428 l 0.252257,0.049 c 0.138741,0.027 0.505483,0.10469 0.814982,0.17271 l 0.562726,0.12372 v 0.10028 c 0,0.18187 -0.19017,0.17901 -0.960233,-0.0145 -0.747332,-0.18775 -0.944132,-0.18956 -0.76158,-0.008 l 0.09185,0.0918 v 0.59712 0.5971 l -0.12278,0.0471 c -0.06753,0.0259 -0.137381,0.0471 -0.155235,0.0471 -0.01785,0 -0.03247,-0.28317 -0.03247,-0.62925 v -0.62924 l -0.13583,0.0568 c -0.07471,0.0312 -0.240613,0.0838 -0.368683,0.11678 -0.128068,0.033 -0.194233,0.0636 -0.147033,0.068 l 0.08582,0.008 0.05578,0.60154 c 0.03069,0.33085 0.0647,0.84603 0.0756,1.14485 0.01084,0.29882 0.06382,0.69843 0.117628,0.88801 l 0.09782,0.34468 0.245276,-0.27632 c 0.134903,-0.15196 0.419916,-0.41066 0.633364,-0.57487 0.213448,-0.16421 0.569367,-0.46565 0.790933,-0.66991 0.423931,-0.39077 0.464079,-0.40979 0.635531,-0.30121 0.124203,0.0787 0.05101,0.24034 -0.108822,0.24034 -0.06002,0 -0.146328,0.0695 -0.191813,0.15453 -0.04549,0.085 -0.268787,0.29199 -0.496232,0.46001 -0.938116,0.69303 -1.398785,1.26978 -1.0759,1.347 l 0.13583,0.0325 -0.155235,0.0582 c -0.08538,0.032 -0.192139,0.0687 -0.237245,0.0814 -0.04511,0.0127 -0.209137,0.32349 -0.364517,0.69055 l -0.282505,0.66736 0.217004,0.52625 c 0.119354,0.28943 0.256309,0.59531 0.304346,0.67973 0.164616,0.28927 0.324108,0.75459 0.324108,0.9456 v 0.19102 l -0.09547,-0.0319 c -0.05251,-0.0175 -0.186588,-0.2911 -0.297962,-0.608 -0.111378,-0.3169 -0.273496,-0.73335 -0.360276,-0.92546 l -0.15778,-0.34928 -0.05735,0.54331 c -0.03155,0.29884 -0.08482,0.69671 -0.118408,0.88417 l -0.06108,0.34082 0.255227,0.39899 c 0.140374,0.21945 0.365583,0.64238 0.500462,0.93986 0.134879,0.29748 0.364852,0.71551 0.511053,0.92896 l 0.265818,0.38809 0.02133,0.26963 0.02133,0.26964 -0.504515,0.0635 c -0.596938,0.0751 -1.022017,0.26492 -1.42954,0.6382 -0.344484,0.31553 -0.345672,0.31587 -0.476683,0.13671 l -0.09932,-0.13583 -0.427551,-6.1e-4 c -0.490436,-0.001 -0.561338,-0.0417 -0.446452,-0.25638 l 0.08248,-0.15413 -0.121356,-0.0466 c -0.265531,-0.10191 -0.908956,-0.0364 -1.510994,0.15379 l -0.634176,0.20033 -0.07094,-0.0709 c -0.124531,-0.12446 0.0162,-0.31913 0.402744,-0.55699 0.806786,-0.49641 0.716721,-0.65057 -0.416766,-0.71333 -0.874791,-0.0485 -1.555418,-0.19178 -1.48117,-0.31193 0.02216,-0.0358 -0.01391,-0.0443 -0.08016,-0.019 l -0.120462,0.0462 0.0012,-0.18295 0.0012,-0.18293 0.07632,0.1164 0.07632,0.11641 -0.04708,-0.24564 -0.04708,-0.24562 0.454676,-0.0593 c 0.614387,-0.0803 1.115772,-0.0814 2.933528,-0.008 l 1.547445,0.0634 -0.732462,-0.76547 -0.732462,-0.76549 -0.283255,-0.57862 c -0.536656,-1.09623 -0.676139,-1.9985 -0.460655,-2.97982 l 0.101175,-0.46078 0.218372,-0.21837 0.218374,-0.21836 h 0.280123 c 0.577865,0 1.350075,0.60326 2.015042,1.57423 0.167189,0.24412 0.316184,0.43164 0.3311,0.41672 0.01492,-0.0149 0.12624,-0.29898 0.247389,-0.63128 l 0.220271,-0.60419 -0.150354,-0.47476 c -0.08269,-0.26113 -0.163573,-0.77167 -0.179729,-1.13453 -0.01616,-0.36286 -0.06926,-0.82627 -0.118017,-1.0298 -0.04875,-0.20352 -0.06671,-0.45746 -0.03989,-0.56432 0.02682,-0.10683 0.01172,-0.2634 -0.03347,-0.3479 l -0.08223,-0.15365 h 0.29593 c 0.412146,0 0.959897,-0.48309 0.766751,-0.67623 -0.06439,-0.0644 -0.513898,0.21503 -0.513898,0.31945 0,0.14418 -0.199544,0.2975 -0.346426,0.26617 l -0.121029,-0.0258 0.276087,-0.38808 c 0.286416,-0.40261 0.424224,-0.51256 0.424224,-0.33848 0,0.0558 0.05437,0.0237 0.120827,-0.0712 0.06645,-0.0949 0.179971,-0.17272 0.252257,-0.17298 0.07229,-2.3e-4 0.236213,-0.0553 0.364281,-0.12233 0.128069,-0.067 0.686914,-0.2035 1.241879,-0.3033 0.554964,-0.0998 1.410697,-0.29782 1.901627,-0.44001 l 0.8926,-0.25852 0.970217,-4.4e-4 0.970219,-4.4e-4 0.544567,0.17136 c 0.299513,0.0942 0.613863,0.23496 0.698557,0.3127 0.0847,0.0777 0.223844,0.12974 0.309222,0.11553 l 0.155236,-0.0258 -0.11284,0.0767 -0.11284,0.0767 0.10513,0.19644 0.10513,0.19646 -0.09283,0.11187 -0.09283,0.11187 -0.481591,0.0521 c -0.264875,0.0287 -0.619637,0.0876 -0.788363,0.13087 l -0.306776,0.0786 0.163711,0.12861 c 0.251195,0.19734 0.566266,0.71039 0.566266,0.92209 0,0.26312 -0.100242,0.20139 -0.401289,-0.24715 -0.142154,-0.21178 -0.374574,-0.45228 -0.516492,-0.53443 l -0.258029,-0.14936 -0.289028,0.0954 c -0.158967,0.0525 -0.374668,0.16501 -0.479334,0.25011 -0.104664,0.085 -0.149124,0.13369 -0.09879,0.10797 0.09811,-0.05 0.300191,0.0874 1.995907,1.35839 1.376141,1.03142 2.256141,1.62431 2.410878,1.62431 0.162925,0 0.16498,-0.008 -0.222422,0.80004 l -0.342348,0.71351 -0.33893,0.32908 -0.338929,0.32909 0.03016,0.31624 0.03016,0.31626 0.09543,-0.0367 c 0.05248,-0.0202 0.139289,-0.0101 0.192893,0.0237 l 0.09747,0.0602 -0.221143,0.0771 -0.221141,0.0771 -0.147504,0.41821 c -0.233584,0.6623 -0.542023,1.22689 -1.01023,1.84923 l -0.434261,0.57721 0.0413,0.13011 0.0413,0.13014 -0.26834,0.20466 c -0.308846,0.23557 -0.399114,0.25212 -0.463267,0.0849 l -0.04594,-0.11969 0.270493,-0.15959 0.270492,-0.1596 v -0.14924 c 0,-0.0821 0.167746,-0.36677 0.372769,-0.63267 0.400974,-0.52003 0.5541,-0.75789 0.688874,-1.07008 l 0.08572,-0.19854 -0.417744,0.14103 -0.417742,0.14102 -0.891711,0.008 -0.891712,0.008 0.07603,0.14207 c 0.11638,0.21746 0.09049,0.71802 -0.04732,0.91477 -0.06784,0.0969 -0.104841,0.22432 -0.08223,0.28326 0.02263,0.0589 -0.0078,0.14771 -0.0675,0.19729 l -0.10862,0.0902 -0.05118,-0.2203 c -0.07026,-0.30236 -0.365252,-0.80304 -0.605194,-1.02717 l -0.199057,-0.18593 -0.08123,0.22474 c -0.04468,0.12359 -0.224438,0.35144 -0.399464,0.50628 l -0.318235,0.28152 0.338879,1.20705 0.338877,1.20705 0.368814,0.24154 0.36881,0.24156 -0.09486,0.10154 c -0.05217,0.0558 -0.162483,0.0839 -0.24513,0.0622 l -0.15027,-0.0393 0.04761,0.23807 0.04761,0.23806 -0.09837,0.0377 c -0.0541,0.0208 -0.157378,0.005 -0.229507,-0.0357 z m -4.749378,-1.26654 c 0.213448,-0.10179 0.553995,-0.20897 0.756769,-0.23826 0.431127,-0.0622 0.440622,-0.0961 0.147655,-0.52613 -0.121571,-0.17847 -0.398708,-0.69455 -0.615872,-1.14688 -0.217164,-0.45232 -0.484443,-0.92889 -0.593954,-1.05904 -0.232317,-0.27608 -0.237276,-0.30357 -0.08268,-0.45815 0.06404,-0.064 0.118622,-0.22746 0.121306,-0.36314 0.0026,-0.13569 0.03433,-0.54361 0.0703,-0.90646 l 0.06542,-0.65975 -0.197766,-0.34928 c -0.764675,-1.3505 -1.790921,-2.01671 -2.295441,-1.4901 l -0.208358,0.21748 -0.08643,0.46167 c -0.04753,0.25392 -0.06986,0.76072 -0.0496,1.12623 l 0.03685,0.66454 0.31775,0.67806 0.317751,0.67806 0.647546,0.63664 c 0.356149,0.35014 0.811694,0.7783 1.012322,0.95146 0.200628,0.17316 0.364778,0.37777 0.364778,0.45471 v 0.1399 l -0.17464,-0.0423 c -0.09605,-0.0233 -1.135154,-0.0843 -2.309118,-0.1356 l -2.134479,-0.0934 -0.349278,0.0768 -0.349279,0.0769 0.232854,0.0988 c 0.128068,0.0543 0.679481,0.11653 1.225361,0.13831 l 0.99251,0.0396 0.109351,0.15612 0.10935,0.15613 -0.156464,0.3067 c -0.190116,0.37265 -0.19604,0.36627 0.272805,0.29391 0.486396,-0.0751 0.896271,0.0184 1.06578,0.24317 0.07348,0.0974 0.302259,0.23291 0.508367,0.30104 l 0.374744,0.12383 0.232852,-0.18336 c 0.128069,-0.10091 0.407491,-0.26662 0.620939,-0.36838 z m 3.717121,-2.2373 0.13758,-0.10065 -0.07059,-0.26809 -0.07059,-0.26808 -0.129779,0.2484 c -0.219295,0.41973 -0.157124,0.60077 0.133364,0.38836 z m 0.887207,-0.79727 0.161904,-0.33326 -0.235584,-0.0516 -0.235587,-0.0518 -0.169154,0.15892 -0.169155,0.15892 0.02807,0.35293 0.02807,0.35296 0.214766,-0.12688 c 0.118118,-0.0698 0.28762,-0.27682 0.376667,-0.46011 z m 1.333405,0.30234 c 0,-0.0664 -0.07534,-0.25472 -0.167403,-0.41853 l -0.167403,-0.29787 -0.14467,0.0775 c -0.07957,0.0426 -0.187609,0.0527 -0.240091,0.0223 -0.05248,-0.0304 -0.0081,0.0316 0.09863,0.13758 0.10673,0.10595 0.254843,0.30605 0.329151,0.44462 0.133639,0.24921 0.291791,0.26788 0.291791,0.0344 z m -1.217315,-0.94887 c -0.02119,-0.081 8.55e-4,-0.22073 0.0488,-0.31048 l 0.08733,-0.16317 h -0.08545 c -0.333864,0 -0.512568,0.38412 -0.249886,0.53711 0.198466,0.11565 0.242372,0.10166 0.199204,-0.0635 z m 0.828407,-0.0457 c 0.134103,-0.16159 0.05061,-0.32266 -0.191229,-0.36889 l -0.204801,-0.0391 -0.112046,0.112 c -0.136347,0.13635 -0.139964,0.19722 -0.0189,0.31829 0.128678,0.12867 0.411614,0.11665 0.526978,-0.0223 z m 2.664978,-0.0503 0.420426,-0.0978 0.0948,-0.26216 c 0.05214,-0.1442 0.07558,-0.28139 0.05208,-0.30488 -0.05562,-0.0557 -1.803407,0.42601 -2.105488,0.5802 l -0.232339,0.11854 0.15472,0.0655 c 0.194809,0.0824 1.063474,0.029 1.61581,-0.0995 z m -2.198454,0.0101 c 0,-0.0427 -0.01541,-0.0776 -0.03423,-0.0776 -0.01883,0 -0.05582,0.0349 -0.0822,0.0776 -0.02638,0.0427 -0.01096,0.0776 0.03423,0.0776 0.04521,0 0.0822,-0.0349 0.0822,-0.0776 z m 0.698556,-0.8926 c 0,-0.0213 -0.01746,-0.0388 -0.03881,-0.0388 -0.02134,0 -0.03881,0.0175 -0.03881,0.0388 0,0.0213 0.01746,0.0388 0.03881,0.0388 0.02134,0 0.03881,-0.0175 0.03881,-0.0388 z m -0.814982,-6.24815 c 0.02638,-0.0427 0.0305,-0.0776 0.0092,-0.0776 -0.02134,0 -0.06039,0.035 -0.08677,0.0776 -0.02638,0.0427 -0.0305,0.0776 -0.0092,0.0776 0.02134,0 0.06039,-0.035 0.08677,-0.0776 z m 0.271662,-0.19403 c 0,-0.0214 -0.01746,-0.0388 -0.03881,-0.0388 -0.02134,0 -0.03881,0.0175 -0.03881,0.0388 0,0.0213 0.01746,0.0388 0.03881,0.0388 0.02134,0 0.03881,-0.0175 0.03881,-0.0388 z m -3.353803,10.74372 c -0.561347,-0.0823 -1.691329,-0.64916 -1.691329,-0.84849 0,-0.14054 0.209781,-0.0792 0.663413,0.19396 0.247154,0.14882 0.574466,0.28931 0.727365,0.31219 0.686062,0.10267 1.199117,0.24014 1.228831,0.32928 l 0.03233,0.097 -0.258725,-0.009 c -0.142299,-0.005 -0.458143,-0.0387 -0.701874,-0.0744 z m 2.120471,-0.0999 -0.08808,-0.10607 0.09797,-0.0747 c 0.05388,-0.0411 0.323932,-0.1498 0.600098,-0.24166 l 0.502122,-0.16704 0.07668,0.0767 0.07668,0.0767 -0.113105,0.10671 c -0.08967,0.0845 -0.925996,0.43552 -1.037916,0.43552 -0.01451,0 -0.06603,-0.0477 -0.114465,-0.1062 z m -0.824701,-9.05461 c -0.08048,-0.1302 0.03965,-0.52469 0.175659,-0.57688 l 0.126191,-0.0484 0.194229,0.19424 0.19423,0.19422 -0.14315,0.15819 c -0.151404,0.16729 -0.464555,0.21232 -0.547159,0.0786 z m -2.501991,-0.39322 c -0.285399,-0.18492 -0.324927,-0.34395 -0.100103,-0.40274 l 0.152149,-0.0398 0.31412,0.20368 c 0.172766,0.112 0.302441,0.23936 0.288166,0.28299 -0.04751,0.14514 -0.398776,0.12145 -0.654328,-0.0442 z m 5.459588,-0.19685 c -0.08743,-0.22784 0.25533,-0.46536 0.380131,-0.26343 0.0657,0.10633 -0.09886,0.3897 -0.226289,0.3897 -0.05796,0 -0.127194,-0.0568 -0.153842,-0.12627 z m 2.049898,-1.89179 c 0,-0.0569 0.02329,-0.0802 0.05174,-0.0518 0.02846,0.0285 0.02846,0.0751 0,0.10343 -0.02846,0.0285 -0.05174,0.005 -0.05174,-0.0518 z"
       id="path1" /></g></svg>
