<?xml version="1.0" encoding="UTF-8" standalone="no"?>
<!-- Created with Inkscape (http://www.inkscape.org/) -->

<svg
   width="89.28698mm"
   height="67.796883mm"
   viewBox="0 0 89.28698 67.796883"
   version="1.1"
   id="svg1"
   xml:space="preserve"
   inkscape:version="1.3.2 (091e20e, 2023-11-25, custom)"
   sodipodi:docname="lafrog.svg"
   xmlns:inkscape="http://www.inkscape.org/namespaces/inkscape"
   xmlns:sodipodi="http://sodipodi.sourceforge.net/DTD/sodipodi-0.dtd"
   xmlns="http://www.w3.org/2000/svg"
   xmlns:svg="http://www.w3.org/2000/svg"><sodipodi:namedview
     id="namedview1"
     pagecolor="#ffffff"
     bordercolor="#000000"
     borderopacity="0.25"
     inkscape:showpageshadow="2"
     inkscape:pageopacity="0.0"
     inkscape:pagecheckerboard="0"
     inkscape:deskcolor="#d1d1d1"
     inkscape:document-units="mm"
     inkscape:zoom="1.0449705"
     inkscape:cx="240.19817"
     inkscape:cy="166.99036"
     inkscape:window-width="1350"
     inkscape:window-height="1237"
     inkscape:window-x="1488"
     inkscape:window-y="116"
     inkscape:window-maximized="0"
     inkscape:current-layer="layer1" /><defs
     id="defs1" /><g
     inkscape:label="Layer 1"
     inkscape:groupmode="layer"
     id="layer1"
     transform="translate(-41.257144,-104.22861)"><path
       style="display:inline;fill:#000000"
       d="m 127.8641,171.89132 c -0.38805,-0.0994 -0.8643,-0.30835 -1.05833,-0.46424 -0.19403,-0.1559 -1.94028,-0.91345 -3.88056,-1.68345 l -3.52778,-1.4 -2.99861,-0.42528 c -1.64923,-0.2339 -4.10986,-0.55733 -5.46805,-0.71873 -2.27172,-0.26996 -5.9521,-1.43163 -6.63737,-2.09501 -0.92708,-0.89746 1.2264,-4.52924 5.24195,-8.84039 l 1.47865,-1.5875 0.34237,-1.42258 0.34237,-1.42259 -0.37151,-0.58897 c -0.44662,-0.70804 -0.17462,-1.07137 0.5841,-0.78022 0.85177,0.32685 0.98004,1.06852 0.53194,3.07574 l -0.41169,1.84418 -2.08135,2.25158 c -2.79354,3.02204 -4.13474,4.9249 -4.13474,5.86628 v 0.78005 l 1.97167,0.75452 c 1.08442,0.41498 2.34201,0.75451 2.79465,0.75451 0.45263,0 2.78007,0.32622 5.17208,0.72493 l 4.3491,0.72493 3.93357,1.56813 c 4.5484,1.81323 5.56113,1.97887 3.25944,0.5331 -0.89454,-0.56189 -1.73662,-1.30875 -1.87128,-1.65969 l -0.24485,-0.63806 0.61081,-0.44664 c 0.76904,-0.56233 0.60535,-0.71961 -1.12252,-1.07861 l -1.39017,-0.28884 v -0.68976 -0.68977 l 1.14653,-0.50463 c 1.85449,-0.81624 0.19229,-1.3102 -6.92246,-2.05717 l -1.5426,-0.16196 -0.30408,0.47994 c -0.51014,0.80515 -0.35988,1.0091 0.74344,1.0091 h 1.05834 v 0.70556 0.70555 h -1.23473 -1.23472 v 0.88195 0.88194 h -0.478 c -0.59375,0 -2.39902,-2.13056 -2.22967,-2.63144 0.0683,-0.20194 0.50478,-0.36717 0.97,-0.36717 h 0.84585 l 0.41955,-1.76389 c 0.23075,-0.97014 0.58654,-4.64779 0.79063,-8.17256 l 0.37108,-6.40868 -0.37997,-1.08998 -0.37997,-1.08998 -0.9013,-0.22621 c -1.18343,-0.29702 -1.99966,0.24971 -2.14048,1.43377 l -0.11367,0.95576 -0.73225,-0.10939 c -0.40273,-0.0602 -0.90639,-0.38721 -1.11924,-0.72676 l -0.387,-0.61736 0.38058,-0.61736 c 0.20932,-0.33955 0.93241,-0.91995 1.60686,-1.28979 l 1.22627,-0.67243 0.90437,0.22698 c 0.4974,0.12484 1.28163,0.5342 1.74273,0.90969 l 0.83835,0.6827 -0.0984,7.72617 -0.0984,7.72617 2.87007,0.61675 c 1.57854,0.33921 4.25947,0.76049 5.95763,0.93618 4.60177,0.4761 5.71166,1.39193 2.71971,2.24419 -1.62851,0.46388 -1.61341,0.86156 0.0685,1.80502 0.70116,0.39331 1.32968,0.99987 1.39671,1.34792 l 0.12187,0.63282 -0.73624,0.19253 c -0.96759,0.25303 -0.96587,0.25739 0.692,1.75518 l 1.42824,1.29033 -0.10532,0.73723 -0.10532,0.73722 -0.88195,0.0546 c -0.48507,0.0301 -1.19944,-0.0267 -1.5875,-0.12615 z m -28.046487,-1.69411 c -0.19367,-0.50938 -0.35212,-1.0741 -0.35212,-1.25494 0,-0.18083 -0.5327,-0.92456 -1.18377,-1.65273 -0.65107,-0.72816 -1.26986,-1.79082 -1.37508,-2.36148 l -0.1913,-1.03754 0.4996,-0.76249 c 0.27477,-0.41936 0.50433,-1.61934 0.51011,-2.66662 0.0241,-4.36402 -0.25419,-10.06018 -0.51961,-10.63538 l -0.28488,-0.61736 h 0.55331 0.55331 l 0.38274,1.42136 0.38273,1.42136 -0.23621,2.08779 -0.2362,2.08779 0.42004,2.22612 0.42003,2.22611 -0.38416,1.01042 -0.38416,1.01042 0.40356,0.48626 c 0.22195,0.26744 0.88132,0.48626 1.465247,0.48626 1.09696,0 3.43802,1.22068 3.43802,1.79266 0,0.46802 -1.65452,0.39828 -2.45818,-0.10362 -0.3766,-0.23519 -0.79395,-0.3184 -0.92743,-0.18491 -0.328067,0.32807 0.4557,1.22483 1.53953,1.76147 1.19238,0.59039 0.8849,1.16304 -0.57043,1.06239 l -1.18179,-0.0817 0.21316,0.55547 c 0.50783,1.3234 0.59365,2.19319 0.23807,2.41295 l -0.38203,0.23611 z m -9.98662,-1.99281 c -0.32783,-0.18346 -0.59606,-0.56939 -0.59606,-0.85762 0,-1.92745 -1.46826,-2.59285 -3.52676,-1.5983 -1.45624,0.70358 -1.7649,0.64642 -1.7649,-0.32683 v -0.60275 l 2.02847,-1.01414 2.02847,-1.01415 0.11207,-0.97475 c 0.0999,-0.8689 -1.11927,-5.74329 -2.04647,-8.18201 l -0.34962,-0.91959 -0.79827,0.49829 c -0.43904,0.27406 -1.22823,0.59792 -1.75374,0.71969 l -0.95548,0.2214 0.48698,-0.97318 c 1.77289,-3.54298 2.25501,-4.75231 2.07824,-5.21296 l -0.20058,-0.52272 h 0.68862 c 2.3008,0 2.21283,-2.20709 -0.1113,-2.79231 -0.92121,-0.23196 -2.06739,-0.73046 -2.54706,-1.10778 -0.47968,-0.37731 -1.03663,-0.68602 -1.23767,-0.68602 -0.38086,0 -3.613086,-1.47791 -6.947662,-3.17676 -1.067153,-0.54368 -2.614966,-1.1877 -3.439584,-1.43116 -1.339977,-0.39561 -2.053887,-1.03653 -1.154581,-1.03653 0.56092,0 4.605704,1.61545 6.88722,2.75069 5.039817,2.50772 8.241927,3.98747 9.261407,4.27986 l 1.09411,0.31378 0.58084,-0.64182 c 0.31947,-0.35301 1.00348,-0.74791 1.52004,-0.87755 l 0.93919,-0.23573 -0.70057,-0.37507 c -0.38532,-0.20629 -1.01807,-0.73684 -1.40613,-1.179 -0.70902,-0.80789 -3.17811,-1.93978 -7.761109,-3.55788 -3.432284,-1.21183 -6.869393,-2.63546 -8.055005,-3.33635 l -0.999449,-0.59084 0.371863,-0.22982 c 0.204525,-0.12641 1.844902,0.46787 3.645283,1.3206 1.80038,0.85274 3.749669,1.66534 4.331753,1.80578 0.582083,0.14044 2.945814,1.0647 5.252724,2.0539 l 4.19439,1.79856 0.16052,0.61381 0.16052,0.61382 1.7086,0.55885 c 0.93973,0.30737 1.93517,0.55886 2.2121,0.55886 0.27692,0 0.90713,0.3175 1.40046,0.70555 1.17392,0.9234 2.44252,0.89004 5.790987,-0.15229 1.51569,-0.47181 3.98612,-1.20931 5.48983,-1.63889 l 2.73403,-0.78104 v -1.33677 -1.33677 l -2.69256,1.24404 c -1.48091,0.68423 -3.90185,1.49284 -5.37986,1.79692 l -2.687297,0.55287 -3.35139,-0.37146 c -3.62764,-0.40208 -6.16906,-1.22959 -6.51073,-2.11996 -0.40846,-1.06443 0.35338,-1.11967 2.28148,-0.16545 l 1.93454,0.95741 3.92913,0.12499 3.929137,0.12498 2.04784,-0.59532 c 6.41204,-1.86403 9.68389,-4.69488 11.77101,-10.1844 l 0.32806,-0.86288 -3.41704,-2.3075 c -1.87937,-1.26912 -5.08391,-3.60006 -7.12121,-5.17987 -2.03729,-1.5798 -4.418537,-3.2768 -5.291657,-3.77111 -0.87313,-0.49432 -2.00941,-1.18989 -2.52508,-1.54573 l -0.93758,-0.64697 -0.19788,0.51565 c -0.32896,0.85726 -1.07059,0.5678 -1.63113,-0.63662 l -0.52917,-1.13701 -1.41111,-0.78983 -1.41111,-0.78983 -1.55349,-0.006 -1.5535,-0.006 -1.33153,1.44231 c -3.32028,3.59651 -3.31055,7.7902 0.022,9.49034 l 1.38979,0.70902 h 1.79546 c 2.25168,0 3.69262,-0.72714 4.17327,-2.10595 0.46842,-1.34371 1.11494,-1.3882 1.11494,-0.0767 v 0.99233 l -0.97014,0.89995 c -1.21878,1.13059 -2.90422,1.70316 -4.99153,1.6957 l -1.62306,-0.006 -1.41111,-0.7894 -1.41111,-0.7894 -0.81634,-1.58605 -0.81633,-1.58605 0.12192,-2.11734 0.12193,-2.11734 1.39997,-2.01345 c 0.76998,-1.10739 1.87621,-2.23257 2.4583,-2.50038 l 1.05833,-0.48693 2.13582,0.075 c 1.17469,0.0413 2.63186,0.33156 3.23814,0.64508 l 1.10234,0.57004 0.13845,0.79764 0.13846,0.79764 0.40114,-0.95465 0.40113,-0.95466 1.86671,-1.07062 c 2.44965,-1.40498 5.480327,-2.35301 8.745857,-2.73582 l 2.64584,-0.31017 -1.67305,-0.84841 -1.67305,-0.84841 0.43833,-0.29449 0.43832,-0.29448 -1.02275,0.23856 -1.02276,0.23855 0.28162,-0.45568 0.28163,-0.45567 -0.96412,0.24197 -0.96412,0.24198 0.26111,-0.42249 0.26111,-0.42248 -0.83496,0.21834 c -0.45922,0.12009 -1.51394,0.0474 -2.343817,-0.16159 l -1.50887,-0.37994 -2.38565,0.42708 c -1.3121,0.23489 -4.05251,0.89021 -6.08981,1.45626 -2.03729,0.56605 -6.11562,1.4928 -9.062968,2.05946 -5.834931,1.12182 -6.812028,1.47425 -6.812028,2.45707 v 0.64904 l 1.146528,0.22271 c 0.63059,0.12248 2.297465,0.47576 3.704167,0.78506 l 2.557641,0.56236 v 0.45601 c 0,0.82663 -0.864343,0.81362 -4.364345,-0.0657 -3.396684,-0.85338 -4.291165,-0.86162 -3.461444,-0.0319 l 0.417453,0.41745 v 2.71393 2.71392 l -0.558019,0.21413 c -0.306911,0.11778 -0.624411,0.21414 -0.705556,0.21414 -0.08114,0 -0.147536,-1.28699 -0.147536,-2.85997 v -2.85997 l -0.617361,0.25778 c -0.339548,0.14177 -1.093611,0.38063 -1.675694,0.5308 -0.582084,0.15016 -0.88281,0.28927 -0.668281,0.30913 l 0.390053,0.0361 0.253573,2.73403 c 0.139466,1.50372 0.294081,3.84528 0.34359,5.20347 0.04951,1.3582 0.29009,3.17443 0.534625,4.03607 l 0.44461,1.56662 1.114804,-1.25588 c 0.613142,-0.69074 1.908553,-1.86652 2.878692,-2.61285 0.970139,-0.74632 2.587824,-2.11647 3.594855,-3.04476 1.926808,-1.77616 2.109281,-1.86264 2.888541,-1.36907 0.56454,0.35758 0.23186,1.09237 -0.49458,1.09237 -0.272765,0 -0.665077,0.31605 -0.871804,0.70232 -0.206728,0.38627 -1.221666,1.32714 -2.25542,2.09082 -4.263819,3.14987 -6.3576,5.77123 -4.890064,6.12224 l 0.617361,0.14766 -0.705555,0.26482 c -0.388056,0.14566 -0.87329,0.31221 -1.078298,0.37012 -0.205009,0.0579 -0.95055,1.47027 -1.656759,3.13856 l -1.284015,3.03327 0.986308,2.39182 c 0.542469,1.3155 1.164943,2.70573 1.383275,3.0894 0.748197,1.31479 1.4731,3.42973 1.4731,4.29785 v 0.86826 l -0.433896,-0.14464 c -0.238643,-0.0795 -0.848062,-1.32309 -1.354264,-2.76342 -0.506202,-1.44034 -1.243072,-3.33317 -1.637489,-4.2063 l -0.717123,-1.5875 -0.260641,2.46945 c -0.143352,1.35819 -0.385545,3.16654 -0.538206,4.01855 l -0.277566,1.54911 1.160032,1.81342 c 0.638017,0.99739 1.661606,2.91966 2.274642,4.27173 0.613035,1.35206 1.658285,3.25205 2.322777,4.22219 l 1.208167,1.76389 0.09692,1.22553 0.09692,1.22553 -2.293056,0.28868 c -2.713137,0.34157 -4.645157,1.20409 -6.497386,2.90067 -1.565709,1.43413 -1.571106,1.43568 -2.166562,0.62139 l -0.451452,-0.61736 -1.943259,-0.004 c -2.229074,-0.005 -2.551323,-0.1896 -2.029162,-1.16527 l 0.3749,-0.70051 -0.551559,-0.21165 c -1.206865,-0.46312 -4.131279,-0.16551 -6.867596,0.69889 l -2.882388,0.91055 -0.322389,-0.32239 c -0.565984,-0.56598 0.07362,-1.45055 1.830509,-2.53158 3.666913,-2.25627 3.257557,-2.95694 -1.894233,-3.24225 -3.976005,-0.22019 -7.06951,-0.87163 -6.732048,-1.41766 0.100737,-0.16299 -0.06321,-0.20181 -0.36433,-0.0863 l -0.54749,0.21009 0.0054,-0.83149 0.0054,-0.8315 0.346883,0.52917 0.346883,0.52917 -0.213965,-1.11639 -0.213965,-1.11639 2.066541,-0.26982 c 2.792443,-0.36459 5.071282,-0.36997 13.33314,-0.0315 l 7.033265,0.28818 -3.329099,-3.47916 -3.329098,-3.47916 -1.287424,-2.62985 c -2.439147,-4.9825 -3.073107,-9.08339 -2.093714,-13.54358 l 0.459874,-2.09428 0.992523,-0.99253 0.992523,-0.99252 h 1.27319 c 2.626442,0 6.136203,2.74197 9.158537,7.15504 0.75989,1.10955 1.437084,1.9619 1.504876,1.89411 0.06779,-0.0678 0.573775,-1.35897 1.124407,-2.86929 l 1.00115,-2.74603 -0.683375,-2.15789 c -0.375856,-1.18684 -0.743452,-3.50726 -0.81688,-5.1565 -0.07343,-1.64923 -0.314815,-3.75547 -0.536416,-4.68053 -0.2216,-0.92506 -0.303186,-2.07925 -0.181302,-2.56488 0.121884,-0.48562 0.05343,-1.1972 -0.15212,-1.58127 l -0.373728,-0.69832 h 1.345028 c 1.873239,0 4.362817,-2.19568 3.48495,-3.07355 -0.292646,-0.29264 -2.33571,0.97736 -2.33571,1.45192 0,0.65533 -0.906942,1.35218 -1.574538,1.20979 l -0.550098,-0.11732 1.254834,-1.76389 c 1.301789,-1.82989 1.928136,-2.32964 1.928136,-1.53841 0,0.25337 0.247126,0.10785 0.54917,-0.32338 0.302044,-0.43122 0.817982,-0.78502 1.146528,-0.78622 0.328547,-0.001 1.073607,-0.25134 1.655691,-0.55589 0.582083,-0.30454 3.122083,-0.92488 5.644444,-1.37852 2.522359,-0.45365 6.411739,-1.35358 8.643059,-1.99984 l 4.05694,-1.17502 4.40972,-0.002 4.409726,-0.002 2.47511,0.77883 c 1.36131,0.42836 2.79006,1.06794 3.175,1.42128 0.38494,0.35334 1.01739,0.58964 1.40544,0.52511 l 0.70556,-0.11732 -0.51287,0.3488 -0.51286,0.3488 0.47785,0.89286 0.47784,0.89286 -0.42194,0.50841 -0.42195,0.50841 -2.18887,0.23718 c -1.20388,0.13044 -2.81631,0.39809 -3.58318,0.59477 l -1.39432,0.3576 0.74408,0.58453 c 1.1417,0.89691 2.57372,3.22875 2.57372,4.19095 0,1.19591 -0.45558,0.91534 -1.82389,-1.12327 -0.6461,-0.96261 -1.70247,-2.05568 -2.3475,-2.42905 l -1.172766,-0.67886 -1.31366,0.43355 c -0.72251,0.23845 -1.70289,0.74998 -2.17861,1.13675 -0.47573,0.38676 -0.67778,0.60763 -0.449,0.49083 0.44594,-0.22766 1.3644,0.39743 9.071566,6.174 6.25468,4.68792 10.25436,7.3827 10.95765,7.3827 0.74051,0 0.74985,-0.0336 -1.01092,3.63616 l -1.55601,3.24301 -1.54046,1.49569 -1.54046,1.49568 0.13708,1.43743 0.13708,1.43742 0.43375,-0.16645 c 0.23856,-0.0915 0.63308,-0.0432 0.87672,0.10734 l 0.44298,0.27377 -1.00511,0.35039 -1.00511,0.35038 -0.67041,1.90084 c -1.06166,3.01017 -2.46355,5.57631 -4.59159,8.40488 l -1.97375,2.62348 0.1877,0.5914 0.18771,0.59141 -1.21963,0.93025 c -1.40373,1.07068 -1.814006,1.14591 -2.105586,0.38606 l -0.20883,-0.54419 1.229416,-0.72538 1.22941,-0.72537 v -0.67828 c 0,-0.37306 0.76242,-1.66707 1.69427,-2.87558 1.82246,-2.36355 2.51843,-3.44465 3.13099,-4.86359 l 0.38957,-0.90241 -1.89868,0.64099 -1.89868,0.64099 -4.052906,0.0335 -4.0529,0.0335 0.34556,0.64569 c 0.52897,0.98838 0.41128,3.26348 -0.21507,4.15772 -0.30835,0.44022 -0.47653,1.01957 -0.37375,1.28742 0.10279,0.26786 -0.0353,0.67138 -0.30677,0.89672 l -0.49367,0.4097 -0.23265,-1.00127 c -0.31932,-1.37425 -1.6601,-3.6499 -2.75066,-4.6686 l -0.90473,-0.8451 -0.3692,1.02149 c -0.20307,0.56182 -1.02009,1.5973 -1.8156,2.30108 l -1.4464,1.27958 1.54023,5.48612 1.54022,5.48613 1.67629,1.09785 1.67628,1.09786 -0.43114,0.46154 c -0.23713,0.25385 -0.7385,0.38117 -1.11414,0.28294 l -0.68299,-0.17861 0.2164,1.08201 0.2164,1.08201 -0.44708,0.17156 c -0.24589,0.0943 -0.7153,0.0214 -1.04313,-0.16201 z M 68.24466,162.44784 c 0.970138,-0.46249 2.517951,-0.94978 3.439583,-1.08287 1.959507,-0.28295 2.002659,-0.43672 0.671098,-2.39135 -0.552527,-0.81107 -1.812163,-3.15674 -2.79919,-5.2126 -0.987027,-2.05586 -2.201834,-4.2219 -2.699571,-4.81342 -1.055903,-1.25487 -1.078441,-1.37976 -0.375809,-2.08239 0.291041,-0.29104 0.539155,-1.03376 0.551364,-1.65049 0.01221,-0.61673 0.155996,-2.47071 0.319528,-4.11994 l 0.29733,-2.99862 -0.89886,-1.5875 c -3.475514,-6.13819 -8.139892,-9.16611 -10.432977,-6.77264 l -0.947007,0.98846 -0.392834,2.09834 c -0.216059,1.15409 -0.31749,3.45754 -0.225404,5.11877 l 0.167431,3.02043 1.444205,3.08185 1.444205,3.08185 2.943148,2.89356 c 1.618732,1.59145 3.689223,3.53747 4.601093,4.32448 0.911869,0.78701 1.657944,1.71704 1.657944,2.06672 v 0.63579 l -0.79375,-0.19221 c -0.436562,-0.10572 -5.159375,-0.38304 -10.495139,-0.61629 l -9.701389,-0.42408 -1.5875,0.34947 -1.5875,0.34948 1.058334,0.44896 c 0.582083,0.24692 3.088302,0.52981 5.569374,0.62864 l 4.511042,0.17969 0.497021,0.70959 0.49702,0.7096 -0.711144,1.39396 c -0.864093,1.69376 -0.891015,1.66476 1.239924,1.33587 2.21071,-0.3412 4.073628,0.0838 4.844062,1.10523 0.334033,0.44284 1.373791,1.05856 2.310573,1.36828 l 1.703239,0.56311 1.058333,-0.83342 c 0.582084,-0.45837 1.852084,-1.21181 2.822223,-1.67431 z m 16.894633,-10.16864 0.62531,-0.45724 -0.3208,-1.21845 -0.32081,-1.21846 -0.58986,1.12901 c -0.99671,1.90772 -0.71414,2.73056 0.60616,1.76514 z m 4.03243,-3.62372 0.73587,-1.51465 -1.07075,-0.23517 -1.07076,-0.23518 -0.76882,0.72227 -0.76883,0.72228 0.12759,1.60416 0.12758,1.60416 0.97613,-0.57661 c 0.53686,-0.31714 1.30726,-1.25821 1.71199,-2.09126 z m 6.06044,1.37415 c 0,-0.30168 -0.34239,-1.1577 -0.76086,-1.90228 l -0.76086,-1.35376 -0.65754,0.35191 c -0.36165,0.19355 -0.8527,0.23922 -1.09123,0.1015 -0.23852,-0.13772 -0.0368,0.14366 0.44826,0.62529 0.48507,0.48163 1.15828,1.39101 1.49602,2.02083 0.6074,1.13271 1.32621,1.21753 1.32621,0.15651 z m -5.5328,-4.31268 c -0.0963,-0.36822 0.004,-1.00322 0.22183,-1.41111 l 0.3969,-0.74162 h -0.38838 c -1.51744,0 -2.32966,1.7458 -1.13575,2.44119 0.90204,0.52539 1.1016,0.46181 0.9054,-0.28846 z m 3.76518,-0.20796 c 0.60951,-0.73442 0.23001,-1.46648 -0.86915,-1.6766 l -0.93084,-0.17794 -0.50925,0.50925 c -0.61971,0.61971 -0.63615,0.89641 -0.0859,1.44663 0.58485,0.58486 1.87082,0.53045 2.39516,-0.10134 z m 12.112557,-0.22858 1.91087,-0.44426 0.43087,-1.19154 c 0.23697,-0.65535 0.34348,-1.27893 0.23667,-1.38574 -0.25281,-0.25281 -8.196637,1.93629 -9.569627,2.63713 l -1.056,0.53903 0.70322,0.29751 c 0.88542,0.37459 4.833577,0.13152 7.343997,-0.45213 z m -9.992167,0.0477 c 0,-0.19403 -0.07,-0.35278 -0.15556,-0.35278 -0.0856,0 -0.25369,0.15875 -0.3736,0.35278 -0.11992,0.19403 -0.0499,0.35278 0.15557,0.35278 0.20548,0 0.37359,-0.15875 0.37359,-0.35278 z m 3.175,-4.05695 c 0,-0.097 -0.0794,-0.17638 -0.17638,-0.17638 -0.097,0 -0.17639,0.0794 -0.17639,0.17638 0,0.097 0.0794,0.17639 0.17639,0.17639 0.097,0 0.17638,-0.0794 0.17638,-0.17639 z m -3.70416,-28.39861 c 0.11991,-0.19403 0.13865,-0.35278 0.0416,-0.35278 -0.097,0 -0.2745,0.15875 -0.39442,0.35278 -0.11992,0.19403 -0.13865,0.35278 -0.0416,0.35278 0.097,0 0.2745,-0.15875 0.39442,-0.35278 z m 1.23472,-0.88194 c 0,-0.097 -0.0794,-0.17639 -0.17639,-0.17639 -0.097,0 -0.17639,0.0794 -0.17639,0.17639 0,0.097 0.0794,0.17639 0.17639,0.17639 0.097,0 0.17639,-0.0794 0.17639,-0.17639 z m -15.24332,48.83118 c -2.551371,-0.37404 -7.687236,-2.95054 -7.687236,-3.85644 0,-0.63877 0.953475,-0.36002 3.015271,0.88153 1.123331,0.67643 2.611001,1.31496 3.305935,1.41895 3.11821,0.46661 5.45009,1.09146 5.58514,1.4966 l 0.1469,0.44068 -1.17593,-0.043 c -0.64676,-0.0237 -2.0823,-0.17589 -3.19008,-0.3383 z m 9.63772,-0.45382 -0.40032,-0.48236 0.44532,-0.33921 c 0.24493,-0.18656 1.4723,-0.68083 2.7275,-1.09837 l 2.28219,-0.75917 0.34853,0.34854 0.34853,0.34853 -0.51405,0.48491 c -0.40758,0.38448 -4.20873,1.97949 -4.71742,1.97949 -0.066,0 -0.3001,-0.21706 -0.52028,-0.48236 z m -3.74833,-41.15403 c -0.36575,-0.59179 0.1802,-2.38477 0.79838,-2.62198 l 0.57355,-0.2201 0.88279,0.8828 0.88279,0.88279 -0.65063,0.71894 c -0.68814,0.76039 -2.11144,0.96502 -2.48688,0.35755 z m -11.371765,-1.78722 c -1.297162,-0.8405 -1.476819,-1.56328 -0.454996,-1.8305 l 0.691532,-0.18083 1.427703,0.92574 c 0.785237,0.50915 1.374618,1.08795 1.309735,1.28622 -0.215881,0.65968 -1.812471,0.55197 -2.973974,-0.20063 z M 100.37909,116.532 c -0.397357,-1.03551 1.1605,-2.11509 1.72773,-1.19729 0.2986,0.48315 -0.44933,1.77118 -1.0285,1.77118 -0.26345,0 -0.57811,-0.25825 -0.69923,-0.57389 z m 9.31696,-8.59834 c 0,-0.2587 0.10583,-0.36453 0.23518,-0.23518 0.12935,0.12935 0.12935,0.34102 0,0.47037 -0.12935,0.12935 -0.23518,0.0235 -0.23518,-0.23519 z"
       id="path1" /></g></svg>
